<svg width="596" height="596" viewBox="0 0 596 596" fill="none" xmlns="http://www.w3.org/2000/svg">
<circle cx="182.5" cy="182.5" r="182.5" fill="#0FA0D7" fill-opacity="0.5"/>
<path d="M491 446C466.188 446 446 466.188 446 491C446 515.812 466.188 536 491 536C515.812 536 536 515.812 536 491C536 466.188 515.812 446 491 446ZM491 506C482.73 506 476 499.27 476 491C476 482.73 482.73 476 491 476C499.27 476 506 482.73 506 491C506 499.27 499.27 506 491 506Z" fill="black"/>
<path d="M189 235C213.812 235 234 214.812 234 190C234 165.188 213.812 145 189 145C164.188 145 144 165.188 144 190C144 214.812 164.188 235 189 235ZM189 175C197.27 175 204 181.73 204 190C204 198.27 197.27 205 189 205C180.73 205 174 198.27 174 190C174 181.73 180.73 175 189 175Z" fill="black"/>
<path d="M369 265H159C150.715 265 144 271.715 144 280C144 288.285 150.715 295 159 295H369C377.285 295 384 288.285 384 280C384 271.715 377.285 265 369 265Z" fill="black"/>
<path d="M580.996 325H444V99C444 90.7148 437.285 84 429 84H99C90.7148 84 84 90.7148 84 99V491C84 495.086 85.7031 498.918 88.3945 501.605L178.395 591.605C178.395 591.609 178.395 591.609 178.398 591.609C181.164 594.375 184.977 596 189 596H581C589.285 596 596 589.285 596 581V340.004C596.004 331.879 589.371 325 580.996 325V325ZM544.785 355L514.785 385H315.215L285.215 355H544.785ZM174 544.785L135.215 506H174V544.785ZM234.004 339.957C234.004 339.973 234 339.984 234 340V566H204V491C204 482.715 197.285 476 189 476H114V114H414V325H249.004C240.766 325 234.027 331.68 234.004 339.957V339.957ZM566 566H264V376.215L298.395 410.605C301.207 413.422 305.023 415 309 415H521C524.98 415 528.793 413.422 531.605 410.605L566 376.215V566Z" fill="black"/>
<path d="M369 205H279C270.715 205 264 211.715 264 220C264 228.285 270.715 235 279 235H369C377.285 235 384 228.285 384 220C384 211.715 377.285 205 369 205Z" fill="black"/>
<path d="M369 145H279C270.715 145 264 151.715 264 160C264 168.285 270.715 175 279 175H369C377.285 175 384 168.285 384 160C384 151.715 377.285 145 369 145Z" fill="black"/>
<path d="M189 325H159C150.715 325 144 331.715 144 340C144 348.285 150.715 355 159 355H189C197.285 355 204 348.285 204 340C204 331.715 197.285 325 189 325Z" fill="black"/>
<path d="M189 385H159C150.715 385 144 391.715 144 400C144 408.285 150.715 415 159 415H189C197.285 415 204 408.285 204 400C204 391.715 197.285 385 189 385Z" fill="black"/>
</svg>
