<svg width="596" height="534" viewBox="0 0 596 534" fill="none" xmlns="http://www.w3.org/2000/svg">
<circle cx="182.5" cy="182.5" r="182.5" fill="#0FA0D7" fill-opacity="0.5"/>
<path d="M99 534H581C589.285 534 596 527.285 596 519C596 494.617 596 124.414 596 99C596 90.7148 589.285 84 581 84H99C90.7148 84 84 90.7148 84 99V519C84 527.285 90.7148 534 99 534ZM114 114H566V204H114V114ZM114 234H566V504H114V234Z" fill="black"/>
<path d="M260.605 328.395C254.75 322.535 245.25 322.535 239.395 328.395L179.395 388.395C173.535 394.25 173.535 403.746 179.395 409.605L239.395 469.605C245.25 475.465 254.746 475.465 260.605 469.605C266.465 463.746 266.465 454.25 260.605 448.395L211.215 399L260.605 349.605C266.465 343.75 266.465 334.25 260.605 328.395V328.395Z" fill="black"/>
<path d="M376.707 325.582C369.301 321.879 360.289 324.883 356.582 332.289L296.582 452.289C292.879 459.699 295.883 468.711 303.289 472.414C310.715 476.129 319.719 473.102 323.414 465.707L383.414 345.707C387.121 338.301 384.117 329.289 376.707 325.582V325.582Z" fill="black"/>
<path d="M440.605 328.395C434.75 322.535 425.25 322.535 419.395 328.395C413.535 334.25 413.535 343.746 419.395 349.605L468.785 399L419.395 448.395C413.535 454.25 413.535 463.746 419.395 469.605C425.25 475.465 434.75 475.465 440.605 469.605L500.605 409.605C506.465 403.746 506.465 394.25 500.605 388.395L440.605 328.395Z" fill="black"/>
<path d="M520 264H160C151.715 264 145 270.715 145 279C145 287.285 151.715 294 160 294H520C528.285 294 535 287.285 535 279C535 270.715 528.285 264 520 264Z" fill="black"/>
<path d="M415 159C415 167.285 408.285 174 400 174C391.715 174 385 167.285 385 159C385 150.715 391.715 144 400 144C408.285 144 415 150.715 415 159Z" fill="black"/>
<path d="M475 159C475 167.285 468.285 174 460 174C451.715 174 445 167.285 445 159C445 150.715 451.715 144 460 144C468.285 144 475 150.715 475 159Z" fill="black"/>
<path d="M535 159C535 167.285 528.285 174 520 174C511.715 174 505 167.285 505 159C505 150.715 511.715 144 520 144C528.285 144 535 150.715 535 159Z" fill="black"/>
<path d="M310 144H160C151.715 144 145 150.715 145 159C145 167.285 151.715 174 160 174H310C318.285 174 325 167.285 325 159C325 150.715 318.285 144 310 144Z" fill="black"/>
</svg>
