<svg width="594" height="578" viewBox="0 0 594 578" fill="none" xmlns="http://www.w3.org/2000/svg">
<ellipse cx="216.5" cy="201.5" rx="216.5" ry="201.5" fill="#0FA0D7" fill-opacity="0.5"/>
<path d="M549 82H127C102.188 82 82 102.188 82 127V427C82 451.812 102.188 472 127 472H257.188L237.188 532H188C179.715 532 173 538.715 173 547C173 555.285 179.715 562 188 562H488C496.285 562 503 555.285 503 547C503 538.715 496.285 532 488 532H438.812L418.812 472H549C573.812 472 594 451.812 594 427V127C594 102.188 573.812 82 549 82ZM268.812 532L288.812 472H387.188L407.188 532H268.812ZM564 427C564 435.27 557.27 442 549 442C526.34 442 149.777 442 127 442C118.73 442 112 435.27 112 427V412H564V427ZM564 382H112V127C112 118.73 118.73 112 127 112H549C557.27 112 564 118.73 564 127V382Z" fill="black"/>
<path d="M383 157C383 165.285 376.285 172 368 172C359.715 172 353 165.285 353 157C353 148.715 359.715 142 368 142C376.285 142 383 148.715 383 157Z" fill="#152D8C"/>
<path d="M323 157C323 165.285 316.285 172 308 172C299.715 172 293 165.285 293 157C293 148.715 299.715 142 308 142C316.285 142 323 148.715 323 157Z" fill="black"/>
<path d="M443 157C443 165.285 436.285 172 428 172C419.715 172 413 165.285 413 157C413 148.715 419.715 142 428 142C436.285 142 443 148.715 443 157Z" fill="#0FA0D7"/>
<path d="M248 142H158C149.715 142 143 148.715 143 157V337C143 345.285 149.715 352 158 352H248C256.285 352 263 345.285 263 337V157C263 148.715 256.285 142 248 142ZM233 322H173V292H233V322ZM233 262H173V232H233V262ZM233 202H173V172H233V202Z" fill="black"/>
<path d="M468.605 296.395C462.75 290.535 453.25 290.535 447.395 296.395L430.332 313.453L380.48 238.68C377.699 234.508 373.016 232 368 232C362.984 232 358.301 234.508 355.52 238.68L295.52 328.68C290.926 335.57 292.785 344.887 299.68 349.48C306.543 354.055 315.863 352.242 320.48 345.32L368 274.043L415.52 345.32C418.012 349.059 422.051 351.484 426.523 351.926C431 352.371 435.43 350.785 438.605 347.605L458 328.215L477.395 347.605C483.25 353.465 492.75 353.465 498.605 347.605C504.465 341.75 504.465 332.254 498.605 326.395L468.605 296.395Z" fill="black"/>
<path d="M488 172C463.188 172 443 192.188 443 217C443 241.812 463.188 262 488 262C512.812 262 533 241.812 533 217C533 192.188 512.812 172 488 172ZM488 232C479.73 232 473 225.27 473 217C473 208.73 479.73 202 488 202C496.27 202 503 208.73 503 217C503 225.27 496.27 232 488 232Z" fill="#152D8C"/>
</svg>
