<svg width="596" height="534" viewBox="0 0 596 534" fill="none" xmlns="http://www.w3.org/2000/svg">
<circle cx="182.5" cy="182.5" r="182.5" fill="#0FA0D7" fill-opacity="0.5"/>
<path d="M99 534H581C589.285 534 596 527.285 596 519C596 494.617 596 124.414 596 99C596 90.7148 589.285 84 581 84H99C90.7148 84 84 90.7148 84 99V519C84 527.285 90.7148 534 99 534ZM114 114H566V204H114V114ZM114 234H566V504H114V234Z" fill="black"/>
<path d="M415.742 159C415.742 167.285 409.027 174 400.742 174C392.457 174 385.742 167.285 385.742 159C385.742 150.715 392.457 144 400.742 144C409.027 144 415.742 150.715 415.742 159Z" fill="black"/>
<path d="M475.742 159C475.742 167.285 469.027 174 460.742 174C452.457 174 445.742 167.285 445.742 159C445.742 150.715 452.457 144 460.742 144C469.027 144 475.742 150.715 475.742 159Z" fill="#152D8C"/>
<path d="M535.742 159C535.742 167.285 529.027 174 520.742 174C512.457 174 505.742 167.285 505.742 159C505.742 150.715 512.457 144 520.742 144C529.027 144 535.742 150.715 535.742 159Z" fill="#0FA0D7"/>
<path d="M520 264C511.316 264 189.469 264 160 264C151.715 264 145 270.715 145 279V459C145 467.285 151.715 474 160 474H520C528.285 474 535 467.285 535 459C535 449.109 535 289.629 535 279C535 270.715 528.285 264 520 264ZM235 444H175V294H235V444ZM325 444H265V354H325V444ZM415 444H355V354H415V444ZM505 444H445V354H505V444ZM505 324H265V294H505V324Z" fill="black"/>
<path d="M310 144H160C151.715 144 145 150.715 145 159C145 167.285 151.715 174 160 174H310C318.285 174 325 167.285 325 159C325 150.715 318.285 144 310 144Z" fill="black"/>
</svg>
