<svg width="596" height="596" viewBox="0 0 596 596" fill="none" xmlns="http://www.w3.org/2000/svg">
<circle cx="182.5" cy="182.5" r="182.5" fill="#0FA0D7" fill-opacity="0.5"/>
<path d="M446.578 325C452.773 342.457 469.445 355 489 355H551C575.812 355 596 334.812 596 310C596 285.188 575.812 265 551 265H489C469.445 265 452.773 277.543 446.578 295H414V129C414 104.188 393.812 84 369 84H129C104.188 84 84 104.188 84 129V551C84 575.812 104.188 596 129 596H369C393.812 596 414 575.812 414 551V475H446.578C452.773 492.457 469.445 505 489 505H551C575.812 505 596 484.812 596 460C596 435.188 575.812 415 551 415H489C469.445 415 452.773 427.543 446.578 445H414V325H446.578ZM489 295H551C559.27 295 566 301.73 566 310C566 318.27 559.27 325 551 325H489C480.73 325 474 318.27 474 310C474 301.73 480.73 295 489 295ZM384 551C384 559.27 377.27 566 369 566H129C120.73 566 114 559.27 114 551V536H384V551ZM384 295H352.926C345.621 244.184 301.805 205 249 205C191.102 205 144 252.102 144 310C144 367.801 191.016 415 249 415C301.453 415 345.57 376.172 352.926 325H384V445H369C360.715 445 354 451.715 354 460C354 468.285 360.715 475 369 475H384V506H114V174H384V295ZM249 355C264.227 355 278.172 362.711 286.398 374.969C275.383 381.336 262.613 385 249 385C235.387 385 222.617 381.336 211.602 374.969C219.828 362.711 233.773 355 249 355ZM234 310C234 301.73 240.73 295 249 295C257.27 295 264 301.73 264 310C264 318.27 257.27 325 249 325C240.73 325 234 318.27 234 310ZM286.383 335.02C291.191 327.859 294 319.254 294 310C294 285.188 273.812 265 249 265C224.188 265 204 285.188 204 310C204 319.254 206.809 327.859 211.617 335.02C202.859 340.059 195.152 346.836 189.023 354.977C179.598 342.438 174 326.859 174 310C174 268.645 207.645 235 249 235C290.355 235 324 268.645 324 310C324 326.859 318.402 342.438 308.977 354.977C302.848 346.832 295.141 340.059 286.383 335.02ZM384 144H114V129C114 120.73 120.73 114 129 114H369C377.27 114 384 120.73 384 129V144ZM489 445H551C559.27 445 566 451.73 566 460C566 468.27 559.27 475 551 475H489C480.73 475 474 468.27 474 460C474 451.73 480.73 445 489 445Z" fill="black"/>
<path d="M264 460C264 468.285 257.285 475 249 475C240.715 475 234 468.285 234 460C234 451.715 240.715 445 249 445C257.285 445 264 451.715 264 460Z" fill="black"/>
<path d="M324 460C324 468.285 317.285 475 309 475C300.715 475 294 468.285 294 460C294 451.715 300.715 445 309 445C317.285 445 324 451.715 324 460Z" fill="#0FA0D7"/>
</svg>
