<svg width="512" height="596" viewBox="0 0 512 596" fill="none" xmlns="http://www.w3.org/2000/svg">
<circle cx="205.5" cy="182.5" r="182.5" fill="#0FA0D7" fill-opacity="0.5"/>
<path d="M392 596C416.812 596 437 575.812 437 551V129C437 104.188 416.812 84 392 84H152C127.188 84 107 104.188 107 129V551C107 575.812 127.188 596 152 596H392ZM137 129C137 120.73 143.73 114 152 114H392C400.27 114 407 120.73 407 129V144H137V129ZM137 174H407V506H137V174ZM137 551V536H407V551C407 559.27 400.27 566 392 566H152C143.73 566 137 559.27 137 551Z" fill="black"/>
<path d="M256 205C198.102 205 151 252.102 151 310C151 367.801 198.016 415 256 415C314.008 415 361 367.785 361 310C361 252.102 313.898 205 256 205ZM256 385C242.387 385 229.617 381.336 218.602 374.969C226.828 362.711 240.773 355 256 355C271.223 355 285.172 362.711 293.398 374.969C282.383 381.336 269.613 385 256 385ZM241 310C241 301.73 247.73 295 256 295C264.27 295 271 301.73 271 310C271 318.27 264.27 325 256 325C247.73 325 241 318.27 241 310ZM315.977 354.977C309.848 346.832 302.137 340.059 293.383 335.02C298.191 327.859 301 319.254 301 310C301 285.188 280.812 265 256 265C231.188 265 211 285.188 211 310C211 319.254 213.809 327.859 218.617 335.02C209.859 340.059 202.152 346.836 196.023 354.977C186.594 342.438 181 326.859 181 310C181 268.645 214.645 235 256 235C297.355 235 331 268.645 331 310C331 326.859 325.406 342.438 315.977 354.977Z" fill="black"/>
<path d="M271 460C271 468.285 264.285 475 256 475C247.715 475 241 468.285 241 460C241 451.715 247.715 445 256 445C264.285 445 271 451.715 271 460Z" fill="black"/>
<path d="M331 460C331 468.285 324.285 475 316 475C307.715 475 301 468.285 301 460C301 451.715 307.715 445 316 445C324.285 445 331 451.715 331 460Z" fill="#0FA0D7"/>
<path d="M211 460C211 468.285 204.285 475 196 475C187.715 475 181 468.285 181 460C181 451.715 187.715 445 196 445C204.285 445 211 451.715 211 460Z" fill="#152D8C"/>
</svg>
