<svg width="594" height="562" viewBox="0 0 594 562" fill="none" xmlns="http://www.w3.org/2000/svg">
<ellipse cx="237.5" cy="217.5" rx="237.5" ry="217.5" fill="#0FA0D7" fill-opacity="0.5"/>
<path d="M542 175C542 194.33 524.315 210 502.5 210C480.685 210 463 194.33 463 175C463 155.67 480.685 140 502.5 140C524.315 140 542 155.67 542 175ZM492.424 175C492.424 179.931 496.935 183.928 502.5 183.928C508.065 183.928 512.576 179.931 512.576 175C512.576 170.069 508.065 166.072 502.5 166.072C496.935 166.072 492.424 170.069 492.424 175Z" fill="#0FA0D7" fill-opacity="0.5"/>
<path d="M529 367C529 386.33 511.315 402 489.5 402C467.685 402 450 386.33 450 367C450 347.67 467.685 332 489.5 332C511.315 332 529 347.67 529 367ZM479.424 367C479.424 371.931 483.935 375.928 489.5 375.928C495.065 375.928 499.576 371.931 499.576 367C499.576 362.069 495.065 358.072 489.5 358.072C483.935 358.072 479.424 362.069 479.424 367Z" fill="#0FA0D7" fill-opacity="0.5"/>
<path d="M549 82H127C102.188 82 82 102.188 82 127V427C82 451.812 102.188 472 127 472H257.188L237.188 532H188C179.715 532 173 538.715 173 547C173 555.285 179.715 562 188 562H549C573.812 562 594 541.812 594 517C594 504.137 594 134.988 594 127C594 102.188 573.812 82 549 82ZM127 442C118.73 442 112 435.27 112 427V412H384V442H127ZM268.812 532L288.812 472H384V517C384 522.258 384.914 527.305 386.578 532H268.812ZM564 517C564 525.27 557.27 532 549 532C538.812 532 445.152 532 429 532C420.73 532 414 525.27 414 517V502H564V517ZM564 472H414V322H564V472ZM564 292H414V277C414 268.73 420.73 262 429 262H549C557.27 262 564 268.73 564 277V292ZM564 234.578C559.305 232.914 554.258 232 549 232H429C404.188 232 384 252.188 384 277V382H112V127C112 118.73 118.73 112 127 112H549C557.27 112 564 118.73 564 127V234.578Z" fill="black"/>
<rect x="138" y="124" width="260" height="42" rx="21" fill="black"/>
<rect x="440" y="414" width="99" height="42" rx="21" fill="black"/>
<rect x="138" y="188" width="203" height="69" fill="black"/>
<rect x="138" y="287" width="203" height="69" fill="black"/>
</svg>
