<svg width="596" height="596" viewBox="0 0 596 596" fill="none" xmlns="http://www.w3.org/2000/svg">
<ellipse cx="219" cy="205" rx="219" ry="205" fill="#0FA0D7" fill-opacity="0.5"/>
<path d="M585.68 295.75L524.023 275.492C521.637 268.703 518.855 262.012 515.703 255.477L544.336 198.215C547.223 192.437 546.09 185.465 541.523 180.898L499.102 138.477C494.535 133.91 487.559 132.777 481.785 135.664L424.523 164.297C417.988 161.145 411.297 158.363 404.508 155.977L384.254 94.3164C382.227 88.1602 376.48 84 370 84H310C303.52 84 297.77 88.1602 295.75 94.3203L275.492 155.977C268.703 158.363 262.012 161.145 255.477 164.297L198.215 135.664C192.437 132.777 185.465 133.91 180.902 138.477L138.477 180.898C133.91 185.465 132.777 192.441 135.664 198.215L164.297 255.477C161.145 262.012 158.363 268.703 155.977 275.492L94.3203 295.746C88.1602 297.77 84 303.52 84 310V370C84 376.48 88.1602 382.227 94.3164 384.25L155.977 404.508C158.363 411.297 161.145 417.988 164.297 424.523L135.664 481.785C132.777 487.559 133.91 494.535 138.477 499.098L180.898 541.523C185.465 546.09 192.437 547.223 198.215 544.336L255.477 515.703C262.012 518.855 268.703 521.637 275.492 524.023L295.75 585.68C297.77 591.84 303.52 596 310 596H370C376.48 596 382.227 591.84 384.25 585.684L404.508 524.023C411.297 521.637 417.988 518.855 424.523 515.703L481.785 544.336C487.559 547.223 494.535 546.09 499.098 541.523L541.523 499.102C546.09 494.535 547.223 487.559 544.336 481.785L515.703 424.523C518.855 417.988 521.637 411.297 524.02 404.508L585.68 384.254C591.84 382.227 596 376.48 596 370V310C596 303.52 591.84 297.77 585.68 295.75V295.75ZM566 359.141L507.457 378.371C502.824 379.895 499.219 383.574 497.793 388.242C494.742 398.234 490.664 408.055 485.672 417.426C483.387 421.715 483.32 426.844 485.496 431.188L512.668 485.531L485.531 512.668L431.184 485.496C426.84 483.324 421.711 483.391 417.426 485.672C408.055 490.664 398.234 494.742 388.242 497.793C383.574 499.219 379.891 502.824 378.367 507.461L359.141 566H320.863L301.633 507.457C300.109 502.82 296.426 499.219 291.758 497.793C281.766 494.742 271.945 490.664 262.574 485.672C258.285 483.387 253.156 483.32 248.816 485.496L194.469 512.668L167.332 485.531L194.504 431.184C196.676 426.84 196.609 421.715 194.328 417.426C189.336 408.051 185.258 398.23 182.207 388.242C180.781 383.574 177.18 379.891 172.543 378.367L114 359.141V320.863L172.543 301.633C177.18 300.109 180.781 296.426 182.207 291.758C185.258 281.77 189.336 271.949 194.328 262.574C196.613 258.285 196.68 253.156 194.508 248.812L167.336 194.469L194.469 167.332L248.816 194.504C253.16 196.676 258.289 196.609 262.574 194.328C271.949 189.336 281.77 185.258 291.762 182.207C296.43 180.781 300.109 177.176 301.633 172.539L320.859 114H359.137L378.367 172.543C379.891 177.176 383.574 180.781 388.242 182.207C398.23 185.258 408.051 189.336 417.426 194.328C421.715 196.609 426.84 196.676 431.184 194.504L485.531 167.332L512.668 194.469L485.496 248.816C483.324 253.16 483.391 258.285 485.672 262.574C490.664 271.945 494.742 281.766 497.793 291.758C499.219 296.426 502.82 300.109 507.457 301.633L566 320.859V359.141Z" fill="black"/>
<path d="M340 205C265.309 205 205 265.82 205 340C205 414.148 265.281 475 340 475C414.691 475 475 414.18 475 340C475 265.852 414.719 205 340 205ZM240.348 373.094C236.883 362.688 235 351.559 235 340C235 328.441 236.883 317.312 240.348 306.906C247.969 310.453 256.629 313.535 266.133 316.102C265.391 323.918 265 331.906 265 340C265 348.094 265.391 356.082 266.133 363.898C256.629 366.465 247.969 369.547 240.348 373.094ZM253.809 399.895C258.848 397.605 264.598 395.539 270.914 393.719C273.754 405.996 277.578 417.445 282.312 427.688C271.141 420.312 261.457 410.863 253.809 399.895ZM270.914 286.281C264.598 284.461 258.848 282.395 253.809 280.105C261.457 269.137 271.141 259.688 282.312 252.312C277.578 262.555 273.754 274.004 270.914 286.281ZM325 437.992C315.008 428.754 305.844 410.902 300.34 387.656C308.227 386.566 316.496 385.793 325 385.371V437.992ZM325 355.332C314.871 355.773 305.066 356.66 295.723 357.961C295.254 352.156 295 346.16 295 340C295 333.84 295.254 327.844 295.723 322.039C305.066 323.344 314.871 324.227 325 324.668V355.332ZM325 294.629C316.492 294.207 308.223 293.434 300.34 292.344C305.844 269.098 315.008 251.246 325 242.008V294.629ZM426.191 280.105C421.152 282.395 415.402 284.461 409.086 286.281C406.246 274.004 402.422 262.555 397.688 252.312C408.859 259.688 418.543 269.137 426.191 280.105ZM355 242.008C364.992 251.246 374.156 269.098 379.66 292.344C371.773 293.434 363.504 294.207 355 294.629V242.008ZM355 437.992V385.371C363.508 385.793 371.777 386.566 379.66 387.656C374.156 410.902 364.992 428.754 355 437.992ZM384.277 357.961C374.934 356.656 365.129 355.773 355 355.332V324.668C365.129 324.227 374.934 323.34 384.277 322.039C384.746 327.844 385 333.84 385 340C385 346.16 384.746 352.156 384.277 357.961V357.961ZM397.691 427.688C402.422 417.445 406.246 405.996 409.086 393.719C415.402 395.539 421.156 397.605 426.191 399.895C418.543 410.863 408.859 420.312 397.691 427.688V427.688ZM439.652 373.094C432.031 369.547 423.371 366.465 413.867 363.898C414.609 356.082 415 348.094 415 340C415 331.906 414.609 323.918 413.867 316.102C423.371 313.535 432.035 310.453 439.652 306.906C443.117 317.312 445 328.441 445 340C445 351.559 443.117 362.688 439.652 373.094Z" fill="black"/>
</svg>
