<svg width="596" height="504" viewBox="0 0 596 504" fill="none" xmlns="http://www.w3.org/2000/svg">
<circle cx="182.5" cy="182.5" r="182.5" fill="#0FA0D7" fill-opacity="0.5"/>
<path d="M581 384H566V129C566 104.188 545.812 84 521 84H159C134.188 84 114.102 104.188 114.102 129V384H99.1016C90.8164 384 84 390.715 84 399V429C84 470.355 117.645 504 159 504H521C562.355 504 596 470.355 596 429V399C596 390.715 589.285 384 581 384ZM144 129C144 120.73 150.73 114 159 114H521C529.27 114 536.102 120.73 536.102 129V384H431C422.719 384 416.102 390.715 416.102 399V399.02V414H264V399C264 390.715 257.285 384 249 384H144V129ZM566.102 429C566.102 453.812 545.812 474 521 474H159C134.188 474 114 453.812 114 429V414H234.102V429C234.102 437.285 240.715 444 249 444H431C439.285 444 446 437.285 446 429V414H566.102V429Z" fill="black"/>
<path d="M506.004 339C506.004 330.715 499.285 324 491.004 324H225.43L309.957 240.168L359.395 289.605C365.223 295.434 374.66 295.469 380.531 289.684L441.527 229.562C447.422 232.406 454.031 234 461.004 234C485.816 234 506.004 213.812 506.004 189C506.004 164.188 485.816 144 461.004 144C436.191 144 416.004 164.188 416.004 189C416.004 195.906 417.57 202.449 420.359 208.301L370.078 257.863L320.609 208.395C314.766 202.551 305.305 202.531 299.441 208.348L204.004 302.996V159C204.004 150.715 197.285 144 189.004 144C180.719 144 174.004 150.715 174.004 159V339C174.004 347.355 180.844 354 189 354H189.008H491.004C499.285 354 506.004 347.285 506.004 339ZM461.004 174C469.273 174 476.004 180.73 476.004 189C476.004 197.27 469.273 204 461.004 204C452.73 204 446.004 197.27 446.004 189C446.004 180.73 452.73 174 461.004 174Z" fill="black"/>
</svg>
