<svg width="596" height="401" viewBox="0 0 596 401" fill="none" xmlns="http://www.w3.org/2000/svg">
<circle cx="182.5" cy="218.5" r="182.5" fill="#0FA0D7" fill-opacity="0.5"/>
<path d="M512.219 182.457C461.867 149.441 400.469 120 340 120C279.535 120 218.141 149.438 167.781 182.457C121.402 212.867 89.9297 242.914 88.6133 244.18C85.6641 247.008 84 250.914 84 255C84 259.086 85.6641 262.992 88.6133 265.82C89.9297 267.086 121.402 297.133 167.781 327.543C218.133 360.559 279.531 390 340 390C400.465 390 461.859 360.562 512.219 327.543C558.598 297.133 590.07 267.086 591.387 265.82C594.336 262.992 596 259.086 596 255C596 250.914 594.336 247.008 591.387 244.18C590.07 242.914 558.598 212.867 512.219 182.457V182.457ZM225.809 326.926C179.406 302.676 140.316 271.258 121.469 254.992C140.316 238.711 179.41 207.262 225.848 183.008C212.652 203.859 205 228.551 205 255C205 281.422 212.637 306.09 225.809 326.926ZM340 360C282.094 360 235 312.887 235 255C235 197.094 282.113 150 340 150C397.906 150 445 197.113 445 255C445 312.906 397.887 360 340 360ZM454.152 326.992C467.348 306.141 475 281.449 475 255C475 228.578 467.363 203.91 454.191 183.074C500.59 207.324 539.68 238.742 558.531 255.008C539.684 271.289 500.59 302.738 454.152 326.992Z" fill="black"/>
<path d="M340 180C298.645 180 265 213.645 265 255C265 296.355 298.645 330 340 330C381.355 330 415 296.355 415 255C415 213.645 381.355 180 340 180ZM340 300C315.188 300 295 279.812 295 255C295 230.188 315.188 210 340 210C364.812 210 385 230.188 385 255C385 279.812 364.812 300 340 300Z" fill="black"/>
<path d="M355 255C355 263.285 348.285 270 340 270C331.715 270 325 263.285 325 255C325 246.715 331.715 240 340 240C348.285 240 355 246.715 355 255Z" fill="black"/>
<path d="M340 90C348.285 90 355 83.2852 355 75V15C355 6.71484 348.285 0 340 0C331.715 0 325 6.71484 325 15V75C325 83.2852 331.715 90 340 90Z" fill="black"/>
<path d="M153.293 88.4141L213.293 118.414C220.711 122.125 229.719 119.109 233.418 111.707C237.121 104.297 234.117 95.2891 226.711 91.582L166.711 61.582C159.301 57.8789 150.289 60.8828 146.586 68.2891C142.879 75.6992 145.883 84.7109 153.293 88.4141Z" fill="black"/>
<path d="M466.707 118.414L526.707 88.4141C534.117 84.7109 537.121 75.6992 533.414 68.2891C529.711 60.8828 520.699 57.8789 513.289 61.582L453.289 91.582C445.883 95.2891 442.879 104.297 446.582 111.707C450.289 119.117 459.301 122.121 466.707 118.414Z" fill="black"/>
</svg>
