<svg width="203" height="141" viewBox="0 0 203 141" fill="none" xmlns="http://www.w3.org/2000/svg">
<g clip-path="url(#clip0)">
<path d="M78 0H105L85.5 28.5L57 40.5L95.5 59.5L104.522 91.8286L79 115.5L105 142H79V115.5L57 40.5V18L78 0Z" fill="#30BDF2"/>
<path d="M26 49L0 0V141H3H26V49Z" fill="#152D8C"/>
<path d="M0 115L0 141H105V115H0Z" fill="#152D8C"/>
<path d="M104.692 3.78876e-05L90.5 20L141.717 72.4094L159.409 54.717L104.692 3.78876e-05Z" fill="#152D8C"/>
<path d="M195.595 18.5125L177.082 0L130.452 46.63L148.965 65.1426L195.595 18.5125Z" fill="#152D8C"/>
<path d="M203 0H177V92L203 141V0Z" fill="#30BDF2"/>
</g>
<defs>
<clipPath id="clip0">
<rect width="203" height="141" fill="white"/>
</clipPath>
</defs>
</svg>
