<?xml version="1.0" encoding="iso-8859-1"?>
<!-- Generator: Adobe Illustrator 19.0.0, SVG Export Plug-In . SVG Version: 6.00 Build 0)  -->
<svg version="1.1" id="Capa_1" xmlns="http://www.w3.org/2000/svg" xmlns:xlink="http://www.w3.org/1999/xlink" x="0px" y="0px"
	 viewBox="0 0 512 512" style="enable-background:new 0 0 512 512;" xml:space="preserve">
<rect x="60" y="10" style="fill:#EDF2FA;" width="392" height="40.06"/>
<rect x="37" y="448" style="fill:#99BBFF;" width="438" height="54"/>
<rect x="76" y="50.06" style="fill:#C9F3FF;" width="360" height="397.94"/>
<rect x="298" y="50.06" style="fill:#ADE5FF;" width="138" height="397.94"/>
<path d="M475,438h-29V60.063h6c5.522,0,10-4.477,10-10V10c0-5.523-4.478-10-10-10H60c-5.522,0-10,4.477-10,10v40.063
	c0,5.523,4.478,10,10,10h6V438H37c-5.522,0-10,4.478-10,10v54c0,5.522,4.478,10,10,10h438c5.522,0,10-4.478,10-10v-54
	C485,442.478,480.522,438,475,438z M426,438H306.741c0.8-1.438,1.259-3.09,1.259-4.852V60.063h118V438z M70,20h372v20.063H70V20z
	 M86,60.063h202v373.086c0,1.761,0.459,3.414,1.259,4.852H126V146.667C126,127.551,141.552,112,160.667,112h7.721
	c17.185,0,31.482,12.572,34.196,29h-2.627c-18.143,0-32.902,14.76-32.902,32.902V197c0,5.523,4.478,10,10,10h72
	c5.522,0,10-4.477,10-10v-23.098c0-18.143-14.76-32.902-32.902-32.902h-3.391c-2.844-27.49-26.143-49-54.374-49h-7.721
	C130.523,92,106,116.523,106,146.667V438H86V60.063z M226.152,161c7.114,0,12.902,5.788,12.902,12.902V187h-52v-13.098
	c0-7.114,5.788-12.902,12.902-12.902H226.152z M465,492H47v-34h418V492z"/>
<path d="M248.999,230.855l-60.572,60.571c-3.905,3.905-3.905,10.237,0,14.143c1.953,1.952,4.512,2.929,7.071,2.929
	s5.118-0.977,7.071-2.929l60.572-60.571c3.905-3.905,3.905-10.237,0-14.142S252.906,226.951,248.999,230.855z"/>
<path d="M169.5,334.5c2.63,0,5.21-1.07,7.069-2.931c1.86-1.859,2.931-4.439,2.931-7.069s-1.07-5.21-2.931-7.07
	c-1.859-1.86-4.439-2.93-7.069-2.93c-2.641,0-5.21,1.069-7.07,2.93c-1.87,1.86-2.93,4.44-2.93,7.07s1.06,5.21,2.93,7.069
	C164.29,333.43,166.87,334.5,169.5,334.5z"/>
<path d="M243.181,301.177l-86.217,86.217c-3.905,3.905-3.905,10.237,0,14.143c1.953,1.952,4.512,2.929,7.071,2.929
	s5.118-0.977,7.071-2.929l86.217-86.217c3.905-3.905,3.905-10.237,0-14.143C253.417,297.272,247.087,297.272,243.181,301.177z"/>
<path d="M338,298c5.522,0,10-4.478,10-10v-38.009c0-5.523-4.478-10-10-10s-10,4.477-10,10V288C328,293.522,332.478,298,338,298z"/>
<path d="M338,222.5c2.63,0,5.21-1.07,7.069-2.93c1.86-1.86,2.931-4.43,2.931-7.07c0-2.63-1.07-5.21-2.931-7.07
	c-1.859-1.86-4.439-2.93-7.069-2.93s-5.21,1.07-7.07,2.93c-1.86,1.86-2.93,4.44-2.93,7.07s1.069,5.21,2.93,7.07
	S335.37,222.5,338,222.5z"/>
<g>
</g>
<g>
</g>
<g>
</g>
<g>
</g>
<g>
</g>
<g>
</g>
<g>
</g>
<g>
</g>
<g>
</g>
<g>
</g>
<g>
</g>
<g>
</g>
<g>
</g>
<g>
</g>
<g>
</g>
</svg>
