<?xml version="1.0" encoding="iso-8859-1"?>
<!-- Generator: Adobe Illustrator 19.0.0, SVG Export Plug-In . SVG Version: 6.00 Build 0)  -->
<svg version="1.1" id="Capa_1" xmlns="http://www.w3.org/2000/svg" xmlns:xlink="http://www.w3.org/1999/xlink" x="0px" y="0px"
	 viewBox="0 0 512 512" style="enable-background:new 0 0 512 512;" xml:space="preserve">
<path style="fill:#D1E7F8;" d="M392.965,33.417h-57.101L321.81,154.308c-1.214,10.443,6.948,19.609,17.461,19.609h50.287
	c10.513,0,18.675-9.166,17.461-19.609L392.965,33.417z"/>
<rect x="7.5" y="173.92" style="fill:#FFB655;" width="497" height="46.667"/>
<rect x="32" y="220.58" style="fill:#EE8700;" width="448" height="258"/>
<g>
	<path style="fill:#FF5023;" d="M248.5,314.583H103.185v-32.5c0-6.904,5.596-12.5,12.5-12.5H236c6.904,0,12.5,5.596,12.5,12.5
		V314.583z"/>
	<path style="fill:#FF5023;" d="M468.815,314.583H323.5v-32.5c0-6.904,5.596-12.5,12.5-12.5h120.315c6.904,0,12.5,5.596,12.5,12.5
		V314.583z"/>
</g>
<path style="fill:#FF7956;" d="M218.5,314.583H73.185v-32.5c0-6.904,5.596-12.5,12.5-12.5H206c6.904,0,12.5,5.596,12.5,12.5V314.583
	z"/>
<g>
	<rect x="78.5" y="314.58" style="fill:#C6C5CA;" width="23.5" height="164"/>
	<rect x="189.69" y="314.58" style="fill:#C6C5CA;" width="23.5" height="164"/>
</g>
<path style="fill:#FF7956;" d="M438.815,314.583H293.5v-32.5c0-6.904,5.596-12.5,12.5-12.5h120.315c6.904,0,12.5,5.596,12.5,12.5
	V314.583z"/>
<g>
	<rect x="298.81" y="314.58" style="fill:#C6C5CA;" width="23.5" height="164"/>
	<rect x="410" y="314.58" style="fill:#C6C5CA;" width="23.5" height="164"/>
</g>
<polygon style="fill:#FFF5CC;" points="203.93,173.917 99.088,173.917 86.678,135.951 216.339,135.951 "/>
<path style="fill:#CCFC5C;" d="M147.639,135.951c1.794-3.318,2.813-7.117,2.813-11.153c0-12.972-10.516-23.489-23.489-23.489
	s-23.489,10.516-23.489,23.489c0,4.037,1.019,7.835,2.813,11.153H147.639z"/>
<path style="fill:#FF7956;" d="M194.617,135.951c1.794-3.318,2.813-7.117,2.813-11.153c0-12.972-10.516-23.489-23.489-23.489
	s-23.489,10.516-23.489,23.489c0,4.037,1.019,7.835,2.813,11.153H194.617z"/>
<circle style="fill:#FFB655;" cx="150.45" cy="84.08" r="23.502"/>
<rect x="249.38" y="80.08" style="fill:#D1E7F8;" width="44.5" height="93.83"/>
<path style="fill:#9BC9FF;" d="M341.81,154.308l14.054-120.891h-20L321.81,154.308c-1.214,10.443,6.948,19.609,17.461,19.609h20
	C348.758,173.917,340.596,164.75,341.81,154.308z"/>
<rect x="7.5" y="173.92" style="fill:#FF7956;" width="30" height="46.667"/>
<rect x="32" y="220.58" style="fill:#FF5023;" width="30" height="258"/>
<path style="fill:#FF3F62;" d="M115.685,269.583h-30c-6.904,0-12.5,5.596-12.5,12.5v32.5h30v-32.5
	C103.185,275.18,108.782,269.583,115.685,269.583z"/>
<g>
	<rect x="105.5" y="314.58" style="fill:#FF5023;" width="23.5" height="164"/>
	<rect x="216.69" y="314.58" style="fill:#FF5023;" width="23.5" height="164"/>
</g>
<path style="fill:#FF3F62;" d="M336,269.583h-30c-6.904,0-12.5,5.596-12.5,12.5v32.5h30v-32.5
	C323.5,275.18,329.096,269.583,336,269.583z"/>
<g>
	<rect x="325.81" y="314.58" style="fill:#FF5023;" width="23.5" height="164"/>
	<rect x="437" y="314.58" style="fill:#FF5023;" width="23.5" height="164"/>
</g>
<polygon style="fill:#FFC477;" points="86.678,135.951 99.088,173.917 129.088,173.917 116.678,135.951 "/>
<path style="fill:#91DC5A;" d="M136.964,103.538c-3.034-1.43-6.424-2.229-10-2.229c-12.973,0-23.489,10.516-23.489,23.489
	c0,4.037,1.019,7.835,2.813,11.153h20c-1.794-3.318-2.813-7.117-2.813-11.153C123.475,115.401,128.992,107.294,136.964,103.538z"/>
<path style="fill:#FF3F62;" d="M183.941,103.538c-3.034-1.43-6.424-2.229-10-2.229c-12.972,0-23.489,10.516-23.489,23.489
	c0,4.037,1.019,7.835,2.813,11.153h20c-1.794-3.318-2.813-7.117-2.813-11.153C170.453,115.401,175.97,107.294,183.941,103.538z"/>
<path style="fill:#FF7956;" d="M146.948,84.085c0-9.403,5.523-17.517,13.502-21.274c-3.034-1.429-6.424-2.228-10-2.228
	c-12.98,0-23.502,10.522-23.502,23.502c0,12.98,10.522,23.502,23.502,23.502c3.576,0,6.966-0.799,10-2.228
	C152.471,101.602,146.948,93.489,146.948,84.085z"/>
<rect x="249.38" y="80.08" style="fill:#9BC9FF;" width="20" height="93.83"/>
<rect x="83.88" y="189.75" width="15" height="15"/>
<rect x="58.877" y="189.75" width="15" height="15"/>
<rect x="33.877" y="189.75" width="15" height="15"/>
<rect x="168.7" y="147.43" width="15" height="15"/>
<rect x="143.7" y="147.43" width="15" height="15"/>
<rect x="118.7" y="147.43" width="15" height="15"/>
<rect x="418.54" y="237.58" width="15" height="15"/>
<rect x="393.54" y="237.58" width="15" height="15"/>
<rect x="368.54" y="237.58" width="15" height="15"/>
<rect x="443.54" y="237.58" width="15" height="15"/>
<g>
	
		<rect x="362.79" y="106.032" transform="matrix(-0.1155 -0.9933 0.9933 -0.1155 310.6528 503.6865)" style="fill:#FFFFFF;" width="33.584" height="15"/>
	
		<rect x="368.132" y="71.962" transform="matrix(-0.1155 -0.9933 0.9933 -0.1155 340.0876 461.757)" style="fill:#FFFFFF;" width="15" height="15"/>
	
		<rect x="365.224" y="47.138" transform="matrix(0.1155 0.9933 -0.9933 0.1155 383.9456 -321.9023)" style="fill:#FFFFFF;" width="15" height="15"/>
	<rect x="266.13" y="92.8" style="fill:#FFFFFF;" width="15" height="40.15"/>
	<rect x="463" y="189.75" style="fill:#FFFFFF;" width="15" height="15"/>
	<rect x="438" y="189.75" style="fill:#FFFFFF;" width="15" height="15"/>
	<rect x="356.75" y="189.75" style="fill:#FFFFFF;" width="71.25" height="15"/>
	<rect x="189.5" y="284.58" style="fill:#FFFFFF;" width="15" height="15"/>
	<rect x="164.5" y="284.58" style="fill:#FFFFFF;" width="15" height="15"/>
	<rect x="113" y="284.58" style="fill:#FFFFFF;" width="41.5" height="15"/>
</g>
<path d="M512,166.417H0v61.666h24.5v258h34v-15h-19v-38H58v-15H39.5v-163H87v-15H39.5v-12h433v243h-19v15h34v-258H512V166.417z
	 M497,213.083H304.833v-14.5h-15v14.5H15v-31.666h116.5v12.833h15v-12.833H497V213.083z"/>
<rect x="122" y="471.08" width="47.686" height="15"/>
<rect x="233.19" y="471.08" width="45.629" height="15"/>
<rect x="342.31" y="471.08" width="47.686" height="15"/>
<path d="M206,262.083H85.686c-11.028,0-20,8.972-20,20v40H71v164h38.5v-164h72.686v164h38.5v-164H226v-40
	C226,271.055,217.028,262.083,206,262.083z M94.5,471.083H86v-149h8.5V471.083z M80.686,307.083v-25c0-2.757,2.243-5,5-5H206
	c2.757,0,5,2.243,5,5v25H80.686z M205.686,471.083h-8.5v-149h8.5V471.083z"/>
<rect x="122" y="389.08" width="47.686" height="15"/>
<g>
	<rect x="333.31" y="284.58" style="fill:#FFFFFF;" width="41.5" height="15"/>
	<rect x="384.81" y="284.58" style="fill:#FFFFFF;" width="15" height="15"/>
	<rect x="409.81" y="284.58" style="fill:#FFFFFF;" width="15" height="15"/>
</g>
<path d="M426.314,262.083H306c-11.028,0-20,8.972-20,20v40h5.314v164h38.5v-164H402.5v164H441v-164h5.314v-40
	C446.314,271.055,437.342,262.083,426.314,262.083z M314.814,471.083h-8.5v-149h8.5V471.083z M301,307.083v-25c0-2.757,2.243-5,5-5
	h120.314c2.757,0,5,2.243,5,5v25H301z M426,471.083h-8.5v-149h8.5V471.083z"/>
<rect x="342.31" y="389.08" width="47.686" height="15"/>
<polygon points="256.88,87.583 286.38,87.583 286.38,153.917 301.38,153.917 301.38,72.583 241.88,72.583 241.88,153.917 
	256.88,153.917 "/>
<path d="M85.422,156.247l14.258-4.66l-2.66-8.137h108.978l-2.66,8.137l14.258,4.66l9.085-27.797h-21.969
	c0.144-1.21,0.218-2.431,0.218-3.653c0-5.83-1.619-11.289-4.43-15.952l6.111-6.111l-10.606-10.607l-6.112,6.111
	c-3.088-1.861-6.524-3.2-10.187-3.892c1.13-3.213,1.745-6.667,1.745-10.262c0-17.095-13.907-31.002-31.002-31.002
	s-31.002,13.907-31.002,31.002c0,3.595,0.615,7.049,1.746,10.263c-14.339,2.711-25.218,15.334-25.218,30.449
	c0,1.223,0.074,2.443,0.218,3.653H76.336L85.422,156.247z M189.93,124.797c0,1.249-0.139,2.47-0.415,3.653h-31.148
	c-0.276-1.184-0.415-2.403-0.415-3.653c0-8.816,7.172-15.988,15.989-15.988S189.93,115.98,189.93,124.797z M150.45,68.083
	c8.824,0,16.002,7.179,16.002,16.002s-7.178,16.002-16.002,16.002s-16.002-7.179-16.002-16.002S141.626,68.083,150.45,68.083z
	 M110.975,124.797c0-8.816,7.172-15.988,15.989-15.988s15.989,7.172,15.989,15.988c0,1.249-0.139,2.47-0.415,3.653H111.39
	C111.114,127.267,110.975,126.047,110.975,124.797z"/>
<polygon points="364.347,139.704 331.305,139.704 342.559,40.917 386.287,40.917 399.524,154.783 414.424,153.051 405.323,74.766 
	420.205,74.766 420.205,103.667 435.205,103.667 435.205,59.766 403.579,59.766 399.644,25.917 329.17,25.917 314.5,154.704 
	364.347,154.704 "/>
<g>
</g>
<g>
</g>
<g>
</g>
<g>
</g>
<g>
</g>
<g>
</g>
<g>
</g>
<g>
</g>
<g>
</g>
<g>
</g>
<g>
</g>
<g>
</g>
<g>
</g>
<g>
</g>
<g>
</g>
</svg>
