<?xml version="1.0" encoding="iso-8859-1"?>
<!-- Generator: Adobe Illustrator 19.0.0, SVG Export Plug-In . SVG Version: 6.00 Build 0)  -->
<svg version="1.1" id="Capa_1" xmlns="http://www.w3.org/2000/svg" xmlns:xlink="http://www.w3.org/1999/xlink" x="0px" y="0px"
	 viewBox="0 0 512 512" style="enable-background:new 0 0 512 512;" xml:space="preserve">
<rect x="80" y="10" style="fill:#72D8FF;" width="48" height="114.03"/>
<rect x="32" y="40.32" style="fill:#FFC66C;" width="48" height="83.71"/>
<g>
	<path style="fill:#A0E557;" d="M54.097,209.392c-11.95-11.727-9.303-33.717-9.286-33.896l-0.004-0.004l0.003,0.003l-0.005-0.005
		l0.003,0.003c0.093-0.009,21.265-2.092,33.241,9.656c11.969,11.747,9.813,33.289,9.796,33.382l0.006,0.006
		C87.852,218.537,66.094,221.168,54.097,209.392z"/>
	<path style="fill:#A0E557;" d="M92.487,167.871c9.591-9.773,27.577-7.609,27.723-7.595l0.003-0.003l-0.002,0.002l0.004-0.004
		l-0.003,0.003c0.007,0.076,1.711,17.393-7.897,27.188c-9.607,9.789-27.227,8.026-27.303,8.012l-0.005,0.005
		C85.007,195.479,82.856,177.684,92.487,167.871z"/>
</g>
<path style="fill:#FF5D5D;" d="M120.333,218.788h-80v24c0,22.091,17.909,40,40,40l0,0c22.091,0,40-17.909,40-40V218.788z"/>
<g>
	<polygon style="fill:#C9F3FF;" points="94.419,443.063 78.337,502 122.337,502 150.246,443.063 	"/>
	<polygon style="fill:#C9F3FF;" points="417.581,443.063 433.663,502 389.663,502 361.754,443.063 	"/>
</g>
<rect x="10" y="283.06" style="fill:#EDF2FA;" width="492" height="160"/>
<rect x="338" y="283.06" style="fill:#FFC66C;" width="164" height="82.5"/>
<rect x="338" y="365.57" style="fill:#FFB954;" width="164" height="77.5"/>
<path style="fill:#C9F3FF;" d="M486,218H230c-8.837,0-16-7.163-16-16V66c0-8.837,7.163-16,16-16h256c8.837,0,16,7.163,16,16v136
	C502,210.837,494.837,218,486,218z"/>
<path style="fill:#72D8FF;" d="M297.667,283.063L297.667,283.063c20.619,0,37.333-16.715,37.333-37.333V218h46v27.729
	c0,20.619,16.715,37.333,37.333,37.333l0,0L297.667,283.063L297.667,283.063z"/>
<path d="M135.74,358.5c-1.86-1.86-4.44-2.93-7.07-2.93c-2.64,0-5.21,1.07-7.07,2.93c-1.87,1.86-2.93,4.44-2.93,7.07
	s1.06,5.21,2.93,7.07c1.86,1.86,4.43,2.93,7.07,2.93c2.63,0,5.21-1.07,7.07-2.93s2.93-4.44,2.93-7.07S137.6,360.36,135.74,358.5z"/>
<path d="M219.33,355.57c-2.63,0-5.21,1.07-7.07,2.93s-2.93,4.44-2.93,7.07s1.07,5.21,2.93,7.07c1.86,1.86,4.44,2.93,7.07,2.93
	c2.64,0,5.21-1.07,7.07-2.93c1.87-1.86,2.93-4.44,2.93-7.07s-1.06-5.21-2.93-7.07C224.54,356.64,221.97,355.57,219.33,355.57z"/>
<path d="M464.58,375.57c2.64,0,5.21-1.07,7.07-2.93c1.87-1.86,2.93-4.44,2.93-7.07s-1.06-5.21-2.93-7.07
	c-1.86-1.86-4.43-2.93-7.07-2.93c-2.63,0-5.21,1.07-7.07,2.93c-1.86,1.86-2.93,4.44-2.93,7.07s1.07,5.21,2.93,7.07
	C459.37,374.5,461.95,375.57,464.58,375.57z"/>
<path d="M429.06,113.4c2.64,0,5.21-1.07,7.08-2.93c1.86-1.87,2.92-4.44,2.92-7.07s-1.06-5.21-2.92-7.08
	c-1.87-1.86-4.44-2.92-7.08-2.92c-2.63,0-5.21,1.06-7.07,2.92c-1.86,1.87-2.93,4.44-2.93,7.08c0,2.63,1.07,5.21,2.93,7.07
	C423.85,112.33,426.43,113.4,429.06,113.4z"/>
<path d="M361.325,83.294c3.905-3.905,3.905-10.237,0-14.143c-3.905-3.905-10.237-3.905-14.143,0l-75.523,75.523
	c-3.905,3.905-3.905,10.237,0,14.143c1.953,1.953,4.512,2.929,7.071,2.929s5.119-0.976,7.071-2.929L361.325,83.294z"/>
<path d="M10,134.026h32.5h27h21h27h33.167c5.523,0,10-4.477,10-10s-4.477-10-10-10h-12.692c0.004-0.168,0.025-0.331,0.025-0.5V20.5
	C138,9.196,128.804,0,117.5,0h-27C79.196,0,70,9.196,70,20.5v9.843c-0.168-0.004-0.331-0.025-0.5-0.025h-27
	c-11.304,0-20.5,9.196-20.5,20.5v62.708c0,0.169,0.021,0.332,0.025,0.5H10c-5.523,0-10,4.477-10,10
	C0,129.549,4.477,134.026,10,134.026z M90,20.5c0-0.276,0.224-0.5,0.5-0.5h27c0.276,0,0.5,0.224,0.5,0.5v93.026
	c0,0.276-0.224,0.5-0.5,0.5h-27c-0.276,0-0.5-0.224-0.5-0.5V50.818V20.5z M42,113.526V50.818c0-0.276,0.224-0.5,0.5-0.5h27
	c0.276,0,0.5,0.224,0.5,0.5v62.708c0,0.276-0.224,0.5-0.5,0.5h-27C42.224,114.026,42,113.802,42,113.526z"/>
<polygon points="85.35,160.867 85.35,160.866 85.351,160.866 "/>
<path d="M486,228c14.336,0,26-11.664,26-26V66c0-14.336-11.664-26-26-26H230c-14.336,0-26,11.664-26,26v136
	c0,14.336,11.664,26,26,26h95v17.729c0,15.072-12.262,27.333-27.333,27.333H120.091c6.419-8.41,10.243-18.902,10.243-30.274v-24
	c0-5.523-4.477-10-10-10h-22.57c-0.097-1.227-0.232-2.517-0.415-3.855c7.135-1.102,15.637-3.878,22.105-10.468
	c12.141-12.377,10.994-31.885,10.736-34.889c-0.162-2.322-1.13-4.598-2.905-6.374c-1.746-1.746-3.976-2.71-6.258-2.896
	c-4.432-0.455-23.706-1.637-35.676,10.56c-3.438,3.503-5.78,7.58-7.371,11.706c-13.815-8.298-30.64-7.331-33.834-7.06
	c-2.334,0.154-4.626,1.124-6.41,2.908c-1.747,1.747-2.712,3.98-2.896,6.265c-0.443,4.251-1.508,20.659,6.291,34.103h-0.797
	c-5.523,0-10,4.477-10,10v24c0,11.373,3.824,21.865,10.243,30.274H10c-5.523,0-10,4.477-10,10v160c0,5.523,4.477,10,10,10h71.324
	l-12.635,46.305c-0.82,3.007-0.192,6.225,1.7,8.702S75.219,512,78.336,512h44c3.841,0,7.343-2.2,9.01-5.661l25.657-53.276h197.992
	l25.657,53.276c1.667,3.461,5.168,5.661,9.01,5.661h44c3.117,0,6.056-1.454,7.947-3.931c1.892-2.477,2.521-5.695,1.7-8.702
	l-12.635-46.305H502c5.523,0,10-4.477,10-10v-160c0-5.523-4.477-10-10-10h-83.667c-15.072,0-27.333-12.262-27.333-27.333V228H486z
	 M99.624,174.876C99.624,174.875,99.625,174.875,99.624,174.876c2.454-2.5,6.334-3.77,10.081-4.363
	c-0.688,3.624-2.033,7.404-4.526,9.945c-2.441,2.488-6.24,3.828-9.886,4.513C95.894,181.288,97.15,177.396,99.624,174.876z
	 M71.045,192.286c4.167,4.089,5.961,10.664,6.634,16.285c-5.68-0.56-12.404-2.219-16.578-6.316l0,0
	c-4.11-4.034-5.77-10.772-6.321-16.548C60.354,186.397,66.873,188.193,71.045,192.286z M110.333,242.788c0,16.542-13.458,30-30,30
	s-30-13.458-30-30v-14h30.083c0.671,0.018,1.321,0.029,1.933,0.029c0.682,0,1.312-0.012,1.91-0.029h26.074V242.788z M224,202V66
	c0-3.309,2.691-6,6-6h256c3.309,0,6,2.691,6,6v136c0,3.309-2.691,6-6,6H338.602l69.762-69.762c3.905-3.905,3.905-10.237,0-14.143
	c-3.904-3.905-10.237-3.904-14.142,0l-83.313,83.313c-0.19,0.19-0.363,0.39-0.534,0.591H230C226.691,208,224,205.309,224,202z
	 M328,433.063H184v-140h144V433.063z M20,293.063h144v140H20V293.063z M116.054,492H91.431l10.624-38.938h32.75L116.054,492z
	 M420.569,492h-24.623l-18.752-38.938h32.75L420.569,492z M492,433.063H348v-57.495h78.333c5.523,0,10-4.477,10-10s-4.477-10-10-10
	H348v-62.505h144V433.063z M379.726,273.063h-39.434c-0.737-0.173-1.502-0.274-2.292-0.274c-0.558,0-1.101,0.057-1.634,0.145
	c5.431-7.703,8.634-17.084,8.634-27.204V228h26v17.729C371,255.906,374.24,265.335,379.726,273.063z"/>
<g>
</g>
<g>
</g>
<g>
</g>
<g>
</g>
<g>
</g>
<g>
</g>
<g>
</g>
<g>
</g>
<g>
</g>
<g>
</g>
<g>
</g>
<g>
</g>
<g>
</g>
<g>
</g>
<g>
</g>
</svg>
